<?xml version="1.0" encoding="UTF-8"?>
<svg width="16px" height="16px" viewBox="0 0 16 16" version="1.1" xmlns="http://www.w3.org/2000/svg" xmlns:xlink="http://www.w3.org/1999/xlink">
    <!-- Generator: Sketch 55 (78076) - https://sketchapp.com -->
    <title>round-arrow_back-24px</title>
    <desc>Created with Sketch.</desc>
    <g id="UI" stroke="none" stroke-width="1" fill="none" fill-rule="evenodd">
        <g id="Main-0.0" transform="translate(-94.000000, -2452.000000)">
            <g id="Group-3" transform="translate(78.000000, 2436.000000)">
                <g id="round-arrow_back-24px" transform="translate(12.000000, 12.389566)">
                    <polygon id="Path" points="0 0 24 0 24 24 0 24"></polygon>
                    <path d="M19,11 L7.83,11 L12.71,6.12 C13.1,5.73 13.1,5.09 12.71,4.7 C12.32,4.31 11.69,4.31 11.3,4.7 L4.71,11.29 C4.32,11.68 4.32,12.31 4.71,12.7 L11.3,19.29 C11.69,19.68 12.32,19.68 12.71,19.29 C13.1,18.9 13.1,18.27 12.71,17.88 L7.83,13 L19,13 C19.55,13 20,12.55 20,12 C20,11.45 19.55,11 19,11 Z" id="Path" fill="#000000" fill-rule="nonzero"></path>
                </g>
            </g>
        </g>
    </g>
</svg>