<?xml version="1.0" encoding="UTF-8"?>
<svg width="24px" height="24px" viewBox="0 0 24 24" version="1.1" xmlns="http://www.w3.org/2000/svg" xmlns:xlink="http://www.w3.org/1999/xlink">
    <!-- Generator: Sketch 55 (78076) - https://sketchapp.com -->
    <title>facebook</title>
    <desc>Created with Sketch.</desc>
    <defs>
        <linearGradient x1="33.2019533%" y1="14.05981%" x2="58.4948073%" y2="68.1747744%" id="linearGradient-1">
            <stop stop-color="#3457A0" offset="0%"></stop>
            <stop stop-color="#3B5998" offset="100%"></stop>
        </linearGradient>
        <linearGradient x1="71.3773671%" y1="64.688365%" x2="-27.1348331%" y2="-2.99906217%" id="linearGradient-2">
            <stop stop-color="#3457A0" stop-opacity="0" offset="0%"></stop>
            <stop stop-color="#1F3F77" offset="100%"></stop>
        </linearGradient>
        <linearGradient x1="49.9996672%" y1="17.6803361%" x2="49.9996672%" y2="85.4754892%" id="linearGradient-3">
            <stop stop-color="#3457A0" stop-opacity="0" offset="0%"></stop>
            <stop stop-color="#1F3F77" offset="100%"></stop>
        </linearGradient>
        <linearGradient x1="85.571111%" y1="79.1081241%" x2="28.5764236%" y2="37.1141965%" id="linearGradient-4">
            <stop stop-color="#3457A0" stop-opacity="0" offset="0%"></stop>
            <stop stop-color="#2A4C8D" stop-opacity="0.32549" offset="32.51%"></stop>
            <stop stop-color="#22427D" stop-opacity="0.705882" offset="70.45%"></stop>
            <stop stop-color="#1F3F77" offset="100%"></stop>
        </linearGradient>
    </defs>
    <g id="UI" stroke="none" stroke-width="1" fill="none" fill-rule="evenodd">
        <g id="Main-0.0" transform="translate(-706.000000, -3198.000000)" fill-rule="nonzero">
            <g id="facebook" transform="translate(706.000000, 3198.000000)">
                <path d="M19.7072754,23.5891113 C14.5742798,24.1369629 9.4257202,24.1369629 4.29272461,23.5891113 C2.24597166,23.3706665 0.629333484,21.7540283 0.410888672,19.7070923 C-0.136962891,14.5740967 -0.136962891,9.4257202 0.410888672,4.29272461 C0.629333484,2.24597166 2.24597166,0.629333484 4.29272461,0.410888672 C9.4257202,-0.136962891 14.5740967,-0.136962891 19.7070923,0.410888672 C21.7540283,0.629333484 23.3706665,2.24597166 23.5891113,4.29272461 C24.1369629,9.4257202 24.1369629,14.5740967 23.5891113,19.7070923 C23.3706665,21.7540283 21.7542114,23.3706665 19.7072754,23.5891113 Z" id="Path" fill="url(#linearGradient-1)"></path>
                <path d="M22.2837525,5.16082762 C22.0900268,3.34460447 20.6555786,1.90997316 18.8391724,1.71606445 C14.2842407,1.23010256 9.71575927,1.23010256 5.16082763,1.71606445 C3.34460447,1.90997316 1.90997316,3.34460447 1.71606445,5.16082762 C1.23010256,9.71575927 1.23010256,14.2842407 1.71606445,18.8389893 C1.90997316,20.6553955 3.34460447,22.0900268 5.16082763,22.2837525 C9.71575927,22.7698974 14.2842407,22.7698974 18.8389893,22.2837525 C20.6553955,22.0900268 22.0900268,20.6553955 22.2837525,18.8389893 C22.7698974,14.2842407 22.7698974,9.71575927 22.2837525,5.16082762 L22.2837525,5.16082762 Z" id="Path" fill="url(#linearGradient-2)"></path>
                <path d="M0.359619141,19.2095948 C0.376098656,19.3754883 0.393127453,19.5413818 0.410888672,19.7072754 C0.629333484,21.7540283 2.24597166,23.3706665 4.2929077,23.5891113 C9.42590334,24.1369629 14.5742798,24.1369629 19.7072754,23.5891113 C21.7542114,23.3706665 23.3706665,21.7540283 23.5891113,19.7072754 C23.6068725,19.5413818 23.6239013,19.3754883 23.640564,19.2095948 L0.359619141,19.2095948 Z" id="Path" fill="url(#linearGradient-3)"></path>
                <path d="M16.1350708,3.99700927 C14.0440064,3.99700927 12.348999,5.69219972 12.348999,7.78326417 L12.348999,10.6113281 L10.3114013,10.6113281 L10.3114013,14.112854 L12.348999,15.9378662 L12.348999,23.9989013 C14.8029785,23.9869995 17.2567749,23.8505859 19.7072754,23.5891113 C21.7542114,23.3706665 23.3706665,21.7540283 23.5891113,19.7070923 C23.9967041,15.8878784 24.1008911,12.0602417 23.9018555,8.23663331 L19.6622315,3.99700927 L16.1350708,3.99700927 Z" id="Path" fill="url(#linearGradient-4)"></path>
                <path d="M12.348999,23.9989013 C13.7473755,23.9921265 15.1455689,23.9447021 16.5432129,23.8568115 L16.5432129,14.112854 L19.3260498,14.112854 L19.6622315,10.6113281 L16.5432129,10.6113281 L16.5432129,8.38787841 C16.5432129,7.89678956 16.9412842,7.49871825 17.432373,7.49871825 L19.6622315,7.49871825 L19.6622315,3.99700927 L16.1350708,3.99700927 C14.0440064,3.99700927 12.348999,5.69219972 12.348999,7.78326417 L12.348999,10.6113281 L10.3114013,10.6113281 L10.3114013,14.112854 L12.348999,14.112854 L12.348999,23.9989013 Z" id="Path" fill="#FFFFFF"></path>
            </g>
        </g>
    </g>
</svg>