<?xml version="1.0" encoding="UTF-8"?>
<svg width="104px" height="104px" viewBox="0 0 104 104" version="1.1" xmlns="http://www.w3.org/2000/svg" xmlns:xlink="http://www.w3.org/1999/xlink">
    <!-- Generator: Sketch 55 (78076) - https://sketchapp.com -->
    <title>Group 4</title>
    <desc>Created with Sketch.</desc>
    <g id="UI" stroke="none" stroke-width="1" fill="none" fill-rule="evenodd">
        <g id="Main-0.8.3" transform="translate(-668.000000, -240.000000)">
            <g id="Group-2" transform="translate(470.000000, 200.000000)">
                <g id="Group-4" transform="translate(198.000000, 40.000000)">
                    <circle id="Oval" fill="#F1F6F9" cx="52" cy="52" r="52"></circle>
                    <g id="delete" transform="translate(22.000000, 12.000000)" fill-rule="nonzero">
                        <path d="M42.2418213,12.1014405 C41.585083,12.1014405 41.0522461,11.5692139 41.0522461,10.9124756 L41.0522461,6.22985844 C41.0522461,4.10644531 39.3249512,2.37854 37.2015381,2.37854 L22.4829102,2.37854 C20.359497,2.37854 18.6315919,4.10644531 18.6315919,6.22985844 L18.6315919,10.9124756 C18.6315919,11.5692139 18.0993653,12.1014405 17.4420166,12.1014405 C16.7852783,12.1014405 16.2530517,11.5692139 16.2530517,10.9124756 L16.2530517,6.22985844 C16.2530517,2.79479984 19.0478516,0 22.4829102,0 L37.2015381,0 C40.6365967,0 43.4313966,2.79479984 43.4313966,6.22985844 L43.4313966,10.9124756 C43.4307861,11.5692139 42.8985595,12.1014405 42.2418213,12.1014405 Z" id="Path" fill="#00BA66"></path>
                        <path d="M5.15014656,22.1197509 L5.15014656,72.6751709 C5.15014656,76.7205811 8.42956547,80 12.4749756,80 L47.2094727,80 C51.2548828,80 54.5343017,76.7205811 54.5343017,72.6751709 L54.5343017,22.1197509 L5.15014656,22.1197509 Z" id="Path" fill="#43CB8E"></path>
                        <path d="M9.80163578,72.6751709 L9.80163578,22.1197509 L5.15014656,22.1197509 L5.15014656,72.6751709 C5.15014656,76.7205811 8.42956547,80 12.4749756,80 L17.1264648,80 C13.0810547,80 9.80163578,76.7205811 9.80163578,72.6751709 Z" id="Path" fill="#00BA66"></path>
                        <path d="M54.4824219,15.0103759 C54.1229248,12.4359131 51.8981934,10.4364014 49.2285156,10.4364014 L10.4559327,10.4364014 C7.78564453,10.4364014 5.56152344,12.4359131 5.20202641,15.0103759 L54.4824219,15.0103759 Z" id="Path" fill="#43CB8E"></path>
                        <g id="Group" transform="translate(5.156250, 10.312500)" fill="#00BA66">
                            <path d="M9.95117188,0.123901406 L5.29907219,0.123901406 C2.62939453,0.123901406 0.405273438,2.12341312 0.0457764062,4.69787594 L4.69726563,4.69787594 C5.05676266,2.12280281 7.28088375,0.123901406 9.95117188,0.123901406 Z" id="Path"></path>
                            <path d="M9.36157219,17.7587891 L7.87414547,17.7587891 C6.78283688,17.7587891 5.8898925,18.6517334 5.8898925,19.743042 L5.8898925,59.421997 C5.8898925,60.5133056 6.78283688,61.4056397 7.87414547,61.4056397 L9.36157219,61.4056397 C10.4528809,61.4056397 11.3458252,60.5133056 11.3458252,59.421997 L11.3458252,19.743042 C11.3458252,18.6517334 10.4528809,17.7587891 9.36157219,17.7587891 Z" id="Path"></path>
                            <path d="M20.0738525,17.7587891 L18.5858155,17.7587891 C17.4945069,17.7587891 16.6021728,18.6517334 16.6021728,19.743042 L16.6021728,59.421997 C16.6021728,60.5133056 17.4945069,61.4056397 18.5858155,61.4056397 L20.0738525,61.4056397 C21.1645508,61.4056397 22.0574952,60.5133056 22.0574952,59.421997 L22.0574952,19.743042 C22.0581055,18.6517334 21.1651611,17.7587891 20.0738525,17.7587891 Z" id="Path"></path>
                            <path d="M30.7855225,17.7587891 L29.2980956,17.7587891 C28.2067872,17.7587891 27.3138428,18.6517334 27.3138428,19.743042 L27.3138428,59.421997 C27.3138428,60.5133056 28.2067872,61.4056397 29.2980956,61.4056397 L30.7855225,61.4056397 C31.8768311,61.4056397 32.7697753,60.5133056 32.7697753,59.421997 L32.7697753,19.743042 C32.7697753,18.6517334 31.8768311,17.7587891 30.7855225,17.7587891 Z" id="Path"></path>
                            <path d="M41.4978028,17.7587891 L40.0097656,17.7587891 C38.918457,17.7587891 38.0255127,18.6517334 38.0255127,19.743042 L38.0255127,59.421997 C38.0255127,60.5133056 38.918457,61.4056397 40.0097656,61.4056397 L41.4978028,61.4056397 C42.5891113,61.4056397 43.4814453,60.5133056 43.4814453,59.421997 L43.4814453,19.743042 C43.4814453,18.6517334 42.5891113,17.7587891 41.4978028,17.7587891 Z" id="Path"></path>
                        </g>
                        <path d="M15.0634766,69.734497 L15.0634766,30.055542 C15.0634766,29.4439697 15.343628,28.8946533 15.7824706,28.5302734 C15.4388428,28.2440186 14.9975586,28.0712891 14.5178222,28.0712891 L13.0303955,28.0712891 C11.9390869,28.0712891 11.0461425,28.9642334 11.0461425,30.055542 L11.0461425,69.734497 C11.0461425,70.8258056 11.9390869,71.7181397 13.0303955,71.7181397 L14.5178222,71.7181397 C14.9975586,71.7181397 15.4388428,71.5460205 15.7824706,71.2597656 C15.3442383,70.8953858 15.0634766,70.3460694 15.0634766,69.734497 L15.0634766,69.734497 Z" id="Path" fill="#01A755"></path>
                        <path d="M25.7751466,69.734497 L25.7751466,30.055542 C25.7751466,29.4439697 26.0559081,28.8946533 26.4947509,28.5302734 C26.1505127,28.2440186 25.7098389,28.0712891 25.2301025,28.0712891 L23.7420655,28.0712891 C22.6507569,28.0712891 21.7584228,28.9642334 21.7584228,30.055542 L21.7584228,69.734497 C21.7584228,70.8258056 22.6513672,71.7181397 23.7420655,71.7181397 L25.2301025,71.7181397 C25.7098389,71.7181397 26.1505127,71.5460205 26.4947509,71.2597656 C26.0559081,70.8953858 25.7751466,70.3460694 25.7751466,69.734497 L25.7751466,69.734497 Z" id="Path" fill="#01A755"></path>
                        <path d="M36.4874267,69.734497 L36.4874267,30.055542 C36.4874267,29.4439697 36.7681884,28.8946533 37.2064209,28.5302734 C36.862793,28.2440186 36.4215088,28.0712891 35.9423828,28.0712891 L34.4543456,28.0712891 C33.3630372,28.0712891 32.4700928,28.9642334 32.4700928,30.055542 L32.4700928,69.734497 C32.4700928,70.8258056 33.3630372,71.7181397 34.4543456,71.7181397 L35.9423828,71.7181397 C36.4215088,71.7181397 36.862793,71.5460205 37.2064209,71.2597656 C36.7681884,70.8953858 36.4874267,70.3460694 36.4874267,69.734497 L36.4874267,69.734497 Z" id="Path" fill="#01A755"></path>
                        <path d="M47.1990967,69.734497 L47.1990967,30.055542 C47.1990967,29.4439697 47.4798584,28.8946533 47.9187013,28.5302734 C47.5744628,28.2440186 47.1337891,28.0712891 46.6540528,28.0712891 L45.1660156,28.0712891 C44.074707,28.0712891 43.1817627,28.9642334 43.1817627,30.055542 L43.1817627,69.734497 C43.1817627,70.8258056 44.074707,71.7181397 45.1660156,71.7181397 L46.6540528,71.7181397 C47.1331787,71.7181397 47.5744628,71.5460205 47.9187013,71.2597656 C47.4798584,70.8953858 47.1990967,70.3460694 47.1990967,69.734497 L47.1990967,69.734497 Z" id="Path" fill="#01A755"></path>
                        <path d="M57.7001953,14.8150634 L1.98425297,14.8150634 C0.892944375,14.8150634 2.84217094e-14,15.7525634 2.84217094e-14,16.8981934 L2.84217094e-14,20.1959228 C2.84217094e-14,21.3409423 0.892944375,22.2784423 1.98425297,22.2784423 L57.7001953,22.2784423 C58.7915039,22.2784423 59.6838378,21.3415528 59.6838378,20.1959228 L59.6838378,16.8981934 C59.6838378,15.7525634 58.7915039,14.8150634 57.7001953,14.8150634 Z" id="Path" fill="#00BA66"></path>
                        <path d="M57.7001953,17.824707 L1.98425297,17.824707 C1.08398438,17.824707 0.320434531,17.1862794 0.0799560938,16.3201905 C0.0286865625,16.5039062 2.84217094e-14,16.6973877 2.84217094e-14,16.897583 L2.84217094e-14,20.1953125 C2.84217094e-14,21.3409423 0.892944375,22.2784423 1.9836425,22.2784423 L57.699585,22.2784423 C58.7908936,22.2784423 59.6838378,21.3409423 59.6838378,20.1953125 L59.6838378,16.897583 C59.6838378,16.6973877 59.6551514,16.5039062 59.6038819,16.3201905 C59.3640138,17.1862794 58.6004639,17.824707 57.7001953,17.824707 Z" id="Path" fill="#01A755"></path>
                    </g>
                </g>
            </g>
        </g>
    </g>
</svg>