<?xml version="1.0" encoding="UTF-8"?>
<svg width="24px" height="24px" viewBox="0 0 24 24" version="1.1" xmlns="http://www.w3.org/2000/svg" xmlns:xlink="http://www.w3.org/1999/xlink">
    <!-- Generator: Sketch 55 (78076) - https://sketchapp.com -->
    <title>instagram</title>
    <desc>Created with Sketch.</desc>
    <defs>
        <radialGradient cx="20.4994381%" cy="87.3920768%" fx="20.4994381%" fy="87.3920768%" r="110.2824%" id="radialGradient-1">
            <stop stop-color="#FAE100" offset="0%"></stop>
            <stop stop-color="#FADC04" offset="5.44%"></stop>
            <stop stop-color="#FBCE0E" offset="11.67%"></stop>
            <stop stop-color="#FCB720" offset="18.29%"></stop>
            <stop stop-color="#FE9838" offset="25.14%"></stop>
            <stop stop-color="#FF7950" offset="30.54%"></stop>
            <stop stop-color="#FF1C74" offset="49.22%"></stop>
            <stop stop-color="#6C1CD1" offset="100%"></stop>
        </radialGradient>
        <linearGradient x1="36.8759009%" y1="42.6177546%" x2="-154.039644%" y2="-64.7722395%" id="linearGradient-2">
            <stop stop-color="#A1B5D8" stop-opacity="0" offset="0%"></stop>
            <stop stop-color="#90A2BD" stop-opacity="0.309804" offset="30.94%"></stop>
            <stop stop-color="#7C8B9C" stop-opacity="0.756863" offset="75.54%"></stop>
            <stop stop-color="#748290" offset="100%"></stop>
        </linearGradient>
        <linearGradient x1="49.9996672%" y1="41.2557065%" x2="49.9996672%" y2="119.349194%" id="linearGradient-3">
            <stop stop-color="#FAE100" stop-opacity="0" offset="0%"></stop>
            <stop stop-color="#FCA800" stop-opacity="0.305882" offset="30.68%"></stop>
            <stop stop-color="#FE7300" stop-opacity="0.627451" offset="62.75%"></stop>
            <stop stop-color="#FF5200" stop-opacity="0.866667" offset="86.85%"></stop>
            <stop stop-color="#FF4500" offset="100%"></stop>
        </linearGradient>
        <linearGradient x1="31.6097795%" y1="31.2687228%" x2="1.2163078%" y2="1.03725639%" id="linearGradient-4">
            <stop stop-color="#833AB4" stop-opacity="0" offset="0%"></stop>
            <stop stop-color="#833AB4" offset="100%"></stop>
        </linearGradient>
        <linearGradient x1="58.2371646%" y1="88.5512159%" x2="41.8417883%" y2="11.3608773%" id="linearGradient-5">
            <stop stop-color="#833AB4" stop-opacity="0" offset="0%"></stop>
            <stop stop-color="#833AB4" offset="100%"></stop>
        </linearGradient>
        <linearGradient x1="60.5048093%" y1="60.5047823%" x2="-15.9715487%" y2="-15.9716059%" id="linearGradient-6">
            <stop stop-color="#833AB4" stop-opacity="0" offset="0%"></stop>
            <stop stop-color="#833AB4" offset="100%"></stop>
        </linearGradient>
        <linearGradient x1="40.2793567%" y1="33.2168435%" x2="5.2944048%" y2="-6.34929376%" id="linearGradient-7">
            <stop stop-color="#833AB4" stop-opacity="0" offset="0%"></stop>
            <stop stop-color="#833AB4" offset="100%"></stop>
        </linearGradient>
        <linearGradient x1="81.5887586%" y1="19.065856%" x2="17.2310239%" y2="82.5326174%" id="linearGradient-8">
            <stop stop-color="#833AB4" offset="0%"></stop>
            <stop stop-color="#9C3495" offset="9.22%"></stop>
            <stop stop-color="#DC2546" offset="29.27%"></stop>
            <stop stop-color="#FD1D1D" offset="39.2%"></stop>
            <stop stop-color="#FC6831" offset="55.89%"></stop>
            <stop stop-color="#FC9B40" offset="68.87%"></stop>
            <stop stop-color="#FCAF45" offset="75.21%"></stop>
            <stop stop-color="#FDB750" offset="78.06%"></stop>
            <stop stop-color="#FECB6A" offset="86.56%"></stop>
            <stop stop-color="#FFD87A" offset="94.15%"></stop>
            <stop stop-color="#FFDC80" offset="100%"></stop>
        </linearGradient>
    </defs>
    <g id="UI" stroke="none" stroke-width="1" fill="none" fill-rule="evenodd">
        <g id="Main-0.0" transform="translate(-738.000000, -3198.000000)" fill-rule="nonzero">
            <g id="instagram" transform="translate(738.000000, 3198.000000)">
                <path d="M23.5891113,4.29272461 C23.3706665,2.24597166 21.7542114,0.629150391 19.7072754,0.410888672 C14.5740967,-0.136962891 9.42590334,-0.136962891 4.2929077,0.410888672 C2.24597166,0.629333484 0.629333484,2.24597166 0.410888672,4.29272461 C-0.136962891,9.4257202 -0.136962891,14.5740967 0.410888672,19.7070923 C0.629333484,21.7540283 2.24597166,23.3706665 4.29272461,23.5891113 C9.4257202,24.1369629 14.5740967,24.1369629 19.7072754,23.5891113 C21.7542114,23.3706665 23.3706665,21.7540283 23.5891113,19.7070923 C24.1369629,14.5740967 24.1369629,9.42590334 23.5891113,4.29272461 Z" id="Path" fill="url(#radialGradient-1)"></path>
                <path d="M22.2837525,5.16082762 C22.0900268,3.34460447 20.6555786,1.90997316 18.8391724,1.71606445 C14.2842407,1.23010256 9.71575927,1.23010256 5.16082763,1.71606445 C3.34460447,1.90997316 1.90997316,3.34460447 1.71606445,5.16082762 C1.23010256,9.71575927 1.23010256,14.2842407 1.71606445,18.8389893 C1.90997316,20.6553955 3.34460447,22.0900268 5.16082763,22.2837525 C9.71575927,22.7698974 14.2842407,22.7698974 18.8389893,22.2837525 C20.6553955,22.0900268 22.0900268,20.6553955 22.2837525,18.8389893 C22.7698974,14.2842407 22.7698974,9.71575927 22.2837525,5.16082762 L22.2837525,5.16082762 Z" id="Path" fill="url(#linearGradient-2)"></path>
                <path d="M0.359619141,19.2095948 C0.376098656,19.3754883 0.393127453,19.5413818 0.410888672,19.7072754 C0.629333484,21.7540283 2.24597166,23.3706665 4.2929077,23.5891113 C9.42590334,24.1369629 14.5742798,24.1369629 19.7072754,23.5891113 C21.7542114,23.3706665 23.3706665,21.7540283 23.5891113,19.7072754 C23.6068725,19.5413818 23.6239013,19.3754883 23.640564,19.2095948 L0.359619141,19.2095948 Z" id="Path" fill="url(#linearGradient-3)"></path>
                <path d="M23.5891113,19.7070923 C23.8835449,16.9489746 24.0194092,14.1864624 23.9974365,11.4243164 L18.5115967,5.93847656 C17.8262329,5.15606691 16.8251953,4.66772461 15.6489258,4.62542723 C13.2299194,4.53826903 10.8032227,4.54266356 8.38385011,4.62579347 C6.37445067,4.69500731 4.96929933,6.04559325 4.60894777,8.03063963 C4.54541016,8.38110352 4.50732422,8.73614503 4.45733644,9.08917238 L4.45733644,14.9086304 C4.48498538,15.097229 4.52563477,15.2849121 4.53826903,15.4746094 C4.61883544,16.6820068 5.11505128,17.7161865 5.90954588,18.4158325 L11.4920654,23.998169 C14.2316895,24.017395 16.9714966,23.8811646 19.7072754,23.5891113 C21.7542114,23.3706665 23.3706665,21.7540283 23.5891113,19.7070923 L23.5891113,19.7070923 Z" id="Path" fill="url(#linearGradient-4)"></path>
                <path d="M23.5891113,19.7072754 C23.3708496,21.7538452 21.7538452,23.3708496 19.7072754,23.5891113 C16.9718628,23.8809815 14.2315064,24.017395 11.4922485,23.998169 L5.91815184,18.4240723 C6.56433103,18.989685 7.40661619,19.3341065 8.3840332,19.3709107 C10.8028565,19.461731 13.2301026,19.4593506 15.6489258,19.3721924 C17.8366699,19.2930908 19.4197998,17.6738892 19.4880982,15.486145 C19.5609741,13.163269 19.5609741,10.8343506 19.4880982,8.51147461 C19.4569702,7.50219727 19.1026612,6.61413572 18.5152588,5.94213867 L23.9976196,11.4244995 C24.0192261,14.1862793 23.8833618,16.9491577 23.5891113,19.7072754 Z" id="Path" fill="url(#linearGradient-5)"></path>
                <path d="M14.8319092,9.40118409 C14.1291504,8.63598633 13.1207886,8.15588381 12,8.15588381 C9.87707522,8.15588381 8.15588381,9.87707522 8.15588381,12 C8.15588381,13.1207886 8.63598633,14.1291504 9.40118409,14.8319092 L18.295166,23.7258911 C18.7659302,23.6848755 19.2366943,23.6392823 19.7070923,23.5891113 C21.7540283,23.3706665 23.3706665,21.7540283 23.5891113,19.7070923 C23.6392823,19.2366943 23.6848755,18.7659302 23.7258911,18.295166 L14.8319092,9.40118409 Z" id="Path" fill="url(#linearGradient-6)"></path>
                <path d="M23.9534912,14.5852661 L16.7955322,7.42749023 C16.6285401,7.208313 16.3654175,7.06604006 16.0686035,7.06604006 C15.5635987,7.06604006 15.1539917,7.47546384 15.1539917,7.98065184 C15.1539917,8.27746584 15.2962646,8.54058839 15.5154419,8.70758058 L23.8255005,17.0178223 C23.881897,16.2072143 23.9245605,15.3962402 23.9534912,14.5852661 L23.9534912,14.5852661 Z" id="Path" fill="url(#linearGradient-7)"></path>
                <path d="M4.45733644,9.08917238 C4.50732422,8.73614503 4.54541016,8.38110352 4.60894777,8.03063963 C4.96911619,6.04559325 6.37445067,4.69500731 8.38385011,4.62579347 C10.8032227,4.54266356 13.2299194,4.53826903 15.6489258,4.62542723 C17.8359375,4.70416261 19.4197998,6.32354738 19.4880982,8.51129152 C19.560791,10.8343506 19.560791,13.1630859 19.4880982,15.486145 C19.4197998,17.6738892 17.8364868,19.2930908 15.6491089,19.3720093 C13.2301026,19.4593506 10.8028565,19.4615479 8.3840332,19.3707276 C6.19665525,19.2885132 4.68457031,17.6654663 4.53826903,15.4744263 C4.52563477,15.2849121 4.48498537,15.0970459 4.45733644,14.9084473 C4.45733644,12.9686279 4.45733644,11.0288086 4.45733644,9.08917238 Z M12.0020142,18.0754395 C13.1090698,18.0754395 14.2172241,18.1085815 15.322815,18.067749 C17.0562744,18.003479 18.1224975,16.9689331 18.1629638,15.2371216 C18.2131348,13.0792237 18.2131348,10.918396 18.1629638,8.76031495 C18.1224975,7.02886964 17.055542,5.9701538 15.322815,5.93334961 C13.1235352,5.88684084 10.921875,5.88720703 8.7225952,5.93334961 C7.00305178,5.96942137 5.93371584,7.00671384 5.88702394,8.71911619 C5.82769777,10.9042969 5.82769777,13.0933228 5.88702394,15.2785034 C5.93371584,16.9907227 7.00305178,18.0040283 8.72277834,18.067749 C9.81445312,18.1083984 10.9088745,18.0754395 12.0020142,18.0754395 L12.0020142,18.0754395 Z" id="Shape" fill="url(#linearGradient-8)"></path>
                <g id="Group" transform="translate(4.453125, 4.546875)" fill="#FFFFFF">
                    <path d="M0.0042114375,4.54229737 C0.0541992188,4.18927003 0.0922851563,3.83422852 0.155822766,3.48376463 C0.515991188,1.49871825 1.92132567,0.148132313 3.93072511,0.0789184688 C6.35009766,-0.0042114375 8.77679442,-0.00860596875 11.1958008,0.0785522344 C13.3828125,0.157287609 14.9666748,1.77667238 15.0349732,3.96441652 C15.107666,6.28747556 15.107666,8.61621094 15.0349732,10.93927 C14.9666748,13.1270142 13.3833618,14.7462158 11.1959839,14.8251343 C8.77697756,14.9124756 6.34973147,14.9146729 3.9309082,14.8238526 C1.74353025,14.7416382 0.231445312,13.1185913 0.0851440312,10.9275513 C0.0725097656,10.7380371 0.031860375,10.5501709 0.0042114375,10.3615723 C0.0042114375,8.42175291 0.0042114375,6.48193359 0.0042114375,4.54229737 Z M7.54888917,13.5285645 C8.65594481,13.5285645 9.76409911,13.5617065 10.86969,13.520874 C12.6031494,13.456604 13.6693725,12.4220581 13.7098388,10.6902466 C13.7600098,8.53234866 13.7600098,6.37152098 13.7098388,4.21343995 C13.6693725,2.48199464 12.602417,1.4232788 10.86969,1.38647461 C8.67041016,1.33996584 6.46875,1.34033203 4.2694702,1.38647461 C2.54992678,1.42254637 1.48059084,2.45983884 1.43389894,4.17224119 C1.37457277,6.35742188 1.37457277,8.54644777 1.43389894,10.7316284 C1.48059084,12.4438477 2.54992678,13.4571533 4.26965334,13.520874 C5.36132812,13.5615234 6.4557495,13.5285645 7.54888917,13.5285645 L7.54888917,13.5285645 Z" id="Shape"></path>
                    <path d="M7.546875,3.60919191 C5.42395022,3.60919191 3.70275881,5.33020022 3.70275881,7.453125 C3.70275881,9.57623292 5.42395022,11.2972412 7.546875,11.2972412 C9.66998292,11.2972412 11.3909912,9.57623292 11.3909912,7.453125 C11.3909912,5.33020022 9.66998292,3.60919191 7.546875,3.60919191 Z M7.546875,9.97375491 C6.15472411,9.97375491 5.02624509,8.84527589 5.02624509,7.453125 C5.02624509,6.06097411 6.15472411,4.93249509 7.546875,4.93249509 C8.93902589,4.93249509 10.0675049,6.06097411 10.0675049,7.453125 C10.0675049,8.84527589 8.93902589,9.97375491 7.546875,9.97375491 Z" id="Shape"></path>
                    <path d="M12.5299072,3.43377684 C12.5299072,3.93878175 12.1204834,4.34820558 11.6154785,4.34820558 C11.1104737,4.34820558 10.7008667,3.93878175 10.7008667,3.43377684 C10.7008667,2.92858884 11.1104737,2.51916506 11.6154785,2.51916506 C12.1204834,2.51916506 12.5299072,2.92858884 12.5299072,3.43377684 Z" id="Path"></path>
                </g>
            </g>
        </g>
    </g>
</svg>