<?xml version="1.0" encoding="UTF-8"?>
<svg width="24px" height="24px" viewBox="0 0 24 24" version="1.1" xmlns="http://www.w3.org/2000/svg" xmlns:xlink="http://www.w3.org/1999/xlink">
    <!-- Generator: Sketch 55 (78076) - https://sketchapp.com -->
    <title>linkedin</title>
    <desc>Created with Sketch.</desc>
    <defs>
        <linearGradient x1="33.2019533%" y1="14.05981%" x2="58.4948073%" y2="68.1747744%" id="linearGradient-1">
            <stop stop-color="#0077B5" offset="0%"></stop>
            <stop stop-color="#0066B2" offset="100%"></stop>
        </linearGradient>
        <linearGradient x1="73.8335045%" y1="62.7852419%" x2="-89.8948936%" y2="-25.0447696%" id="linearGradient-2">
            <stop stop-color="#0066B2" stop-opacity="0" offset="0%"></stop>
            <stop stop-color="#07485E" offset="100%"></stop>
        </linearGradient>
        <linearGradient x1="49.9996672%" y1="5.89265095%" x2="49.9996672%" y2="110.601705%" id="linearGradient-3">
            <stop stop-color="#0066B2" stop-opacity="0" offset="0%"></stop>
            <stop stop-color="#07485E" offset="100%"></stop>
        </linearGradient>
        <linearGradient x1="43.8060959%" y1="43.9656984%" x2="-3.71819188%" y2="-3.42307306%" id="linearGradient-4">
            <stop stop-color="#0066B2" stop-opacity="0" offset="0%"></stop>
            <stop stop-color="#07485E" offset="100%"></stop>
        </linearGradient>
        <linearGradient x1="79.5478324%" y1="72.7838767%" x2="-29.0442255%" y2="28.6941477%" id="linearGradient-5">
            <stop stop-color="#0066B2" stop-opacity="0" offset="0%"></stop>
            <stop stop-color="#07485E" offset="100%"></stop>
        </linearGradient>
        <linearGradient x1="86.4524255%" y1="93.5984227%" x2="3.18796416%" y2="7.29863912%" id="linearGradient-6">
            <stop stop-color="#0066B2" stop-opacity="0" offset="0%"></stop>
            <stop stop-color="#07485E" offset="100%"></stop>
        </linearGradient>
    </defs>
    <g id="UI" stroke="none" stroke-width="1" fill="none" fill-rule="evenodd">
        <g id="Main-0.0" transform="translate(-706.000000, -3230.000000)" fill-rule="nonzero">
            <g id="linkedin" transform="translate(706.000000, 3230.000000)">
                <path d="M19.7072754,23.5891113 C14.5742798,24.1369629 9.4257202,24.1369629 4.29272461,23.5891113 C2.24597166,23.3706665 0.629333484,21.7540283 0.410888672,19.7070923 C-0.136962891,14.5740967 -0.136962891,9.4257202 0.410888672,4.29272461 C0.629333484,2.24597166 2.24597166,0.629333484 4.29272461,0.410888672 C9.4257202,-0.136962891 14.5740967,-0.136962891 19.7070923,0.410888672 C21.7540283,0.629333484 23.3706665,2.24597166 23.5891113,4.29272461 C24.1369629,9.4257202 24.1369629,14.5740967 23.5891113,19.7070923 C23.3706665,21.7540283 21.7542114,23.3706665 19.7072754,23.5891113 Z" id="Path" fill="url(#linearGradient-1)"></path>
                <path d="M22.2837525,5.16082762 C22.0900268,3.34460447 20.6555786,1.90997316 18.8391724,1.71606445 C14.2842407,1.23010256 9.71575927,1.23010256 5.16082763,1.71606445 C3.34460447,1.90997316 1.90997316,3.34460447 1.71606445,5.16082762 C1.23010256,9.71575927 1.23010256,14.2842407 1.71606445,18.8389893 C1.90997316,20.6553955 3.34460447,22.0900268 5.16082763,22.2837525 C9.71575927,22.7698974 14.2842407,22.7698974 18.8389893,22.2837525 C20.6553955,22.0900268 22.0900268,20.6553955 22.2837525,18.8389893 C22.7698974,14.2842407 22.7698974,9.71575927 22.2837525,5.16082762 L22.2837525,5.16082762 Z" id="Path" fill="url(#linearGradient-2)"></path>
                <path d="M0.359619141,19.2095948 C0.376098656,19.3754883 0.393127453,19.5413818 0.410888672,19.7072754 C0.629333484,21.7540283 2.24597166,23.3706665 4.2929077,23.5891113 C9.42590334,24.1369629 14.5742798,24.1369629 19.7072754,23.5891113 C21.7542114,23.3706665 23.3706665,21.7540283 23.5891113,19.7072754 C23.6068725,19.5413818 23.6239013,19.3754883 23.640564,19.2095948 L0.359619141,19.2095948 Z" id="Path" fill="url(#linearGradient-3)"></path>
                <path d="M23.3303833,20.7923584 L7.84259034,5.30438231 C7.49670412,4.85302734 6.95251462,4.56170653 6.34002684,4.56170653 C5.29522706,4.56170653 4.44818114,5.40856931 4.44818114,6.45336914 C4.44818114,7.06604006 4.73968505,7.61022947 5.19104006,7.95593259 L20.625,23.3900757 C21.8724975,22.9749756 22.8667603,22.0164185 23.3303833,20.7923584 L23.3303833,20.7923584 Z" id="Path" fill="url(#linearGradient-4)"></path>
                <path d="M7.92901612,9.58612059 L4.75085447,9.58612059 L4.75085447,19.4382935 L9.260376,23.947815 C12.7434082,24.0796509 16.2288208,23.9604492 19.7070923,23.5891113 C20.3151855,23.524292 20.8848267,23.335144 21.3916626,23.0487671 L7.92901612,9.58612059 Z" id="Path" fill="url(#linearGradient-5)"></path>
                <path d="M18.7223511,10.411377 C18.1409912,9.77398683 17.3040161,9.37408448 16.3736572,9.37408448 C14.9020386,9.37408448 13.9522705,9.89099119 13.3870239,10.3709107 L12.7642822,9.58612059 L9.83587645,9.58612059 L9.83587645,19.4382935 L14.3589478,23.9613647 C16.1427612,23.9033203 17.9258423,23.7791748 19.7072754,23.5891113 C21.7542114,23.3706665 23.3706665,21.7540283 23.5891113,19.7072754 C23.7352295,18.3387451 23.84198,16.9691162 23.9100952,15.5991211 L18.7223511,10.411377 Z" id="Path" fill="url(#linearGradient-6)"></path>
                <g id="Group" transform="translate(4.406250, 4.546875)" fill="#FFFFFF">
                    <polygon id="Path" points="0.344787609 5.03924559 3.52276612 5.03924559 3.52276612 14.8914185 0.344787609 14.8914185"></polygon>
                    <path d="M11.9674073,4.82720948 C9.63848878,4.82720948 8.61547852,6.12158203 8.35803225,6.515625 L8.35803225,5.03924559 L5.42962645,5.03924559 L5.42962645,14.8914185 L8.60778806,14.8914185 L8.60778806,9.94262695 C8.60778806,8.51257322 9.26605223,7.40020753 10.5146484,7.40020753 C11.7630615,7.40020753 11.9674073,8.78485106 11.9674073,10.4875488 L11.9674073,14.8914185 L15.1455689,14.8914185 L15.1455689,8.00537109 C15.1455689,6.25012209 13.7226562,4.82720948 11.9674072,4.82720948 L11.9674073,4.82720948 Z" id="Path"></path>
                    <path d="M3.82543945,1.90667723 C3.82543945,2.95147706 2.97857667,3.79833984 1.93377684,3.79833984 C0.888977062,3.79833984 0.0419311406,2.95147706 0.0419311406,1.90667723 C0.0419311406,0.861877453 0.888977062,0.0148315313 1.93377684,0.0148315313 C2.97857667,0.0148315313 3.82543945,0.861877453 3.82543945,1.90667723 Z" id="Path"></path>
                </g>
            </g>
        </g>
    </g>
</svg>