<?xml version="1.0" encoding="UTF-8"?>
<svg width="24px" height="24px" viewBox="0 0 24 24" version="1.1" xmlns="http://www.w3.org/2000/svg" xmlns:xlink="http://www.w3.org/1999/xlink">
    <!-- Generator: Sketch 55 (78076) - https://sketchapp.com -->
    <title>messenger</title>
    <desc>Created with Sketch.</desc>
    <defs>
        <linearGradient x1="33.2019533%" y1="14.05981%" x2="58.4948073%" y2="68.1747744%" id="linearGradient-1">
            <stop stop-color="#0082FF" offset="0%"></stop>
            <stop stop-color="#0078DB" offset="100%"></stop>
        </linearGradient>
        <linearGradient x1="73.8335045%" y1="62.7852419%" x2="-89.8948936%" y2="-25.0447696%" id="linearGradient-2">
            <stop stop-color="#0078DB" stop-opacity="0" offset="0%"></stop>
            <stop stop-color="#006CB5" offset="100%"></stop>
        </linearGradient>
        <linearGradient x1="49.9996672%" y1="33.1999926%" x2="49.9996672%" y2="84.3203365%" id="linearGradient-3">
            <stop stop-color="#0078DB" stop-opacity="0" offset="0%"></stop>
            <stop stop-color="#006CB5" offset="100%"></stop>
        </linearGradient>
        <linearGradient x1="84.1815987%" y1="87.9496569%" x2="48.3386828%" y2="51.9837607%" id="linearGradient-4">
            <stop stop-color="#0078DB" stop-opacity="0" offset="0%"></stop>
            <stop stop-color="#006CB5" offset="100%"></stop>
        </linearGradient>
    </defs>
    <g id="UI" stroke="none" stroke-width="1" fill="none" fill-rule="evenodd">
        <g id="Main-0.0" transform="translate(-802.000000, -3198.000000)" fill-rule="nonzero">
            <g id="messenger" transform="translate(802.000000, 3198.000000)">
                <path d="M19.7072754,23.5891113 C14.5742798,24.1369629 9.4257202,24.1369629 4.29272461,23.5891113 C2.24597166,23.3706665 0.629333484,21.7540283 0.410888672,19.7070923 C-0.136962891,14.5740967 -0.136962891,9.4257202 0.410888672,4.29272461 C0.629333484,2.24597166 2.24597166,0.629333484 4.29272461,0.410888672 C9.4257202,-0.136962891 14.5740967,-0.136962891 19.7070923,0.410888672 C21.7540283,0.629333484 23.3706665,2.24597166 23.5891113,4.29272461 C24.1369629,9.4257202 24.1369629,14.5740967 23.5891113,19.7070923 C23.3706665,21.7540283 21.7542114,23.3706665 19.7072754,23.5891113 Z" id="Path" fill="url(#linearGradient-1)"></path>
                <path d="M22.2837525,5.16082762 C22.0900268,3.34460447 20.6555786,1.90997316 18.8391724,1.71606445 C14.2842407,1.23010256 9.71575927,1.23010256 5.16082763,1.71606445 C3.34460447,1.90997316 1.90997316,3.34460447 1.71606445,5.16082762 C1.23010256,9.71575927 1.23010256,14.2842407 1.71606445,18.8389893 C1.90997316,20.6553955 3.34460447,22.0900268 5.16082763,22.2837525 C9.71575927,22.7698974 14.2842407,22.7698974 18.8389893,22.2837525 C20.6553955,22.0900268 22.0900268,20.6553955 22.2837525,18.8389893 C22.7698974,14.2842407 22.7698974,9.71575927 22.2837525,5.16082762 L22.2837525,5.16082762 Z" id="Path" fill="url(#linearGradient-2)"></path>
                <path d="M0.359619141,19.2095948 C0.376098656,19.3754883 0.393127453,19.5413818 0.410888672,19.7072754 C0.629333484,21.7540283 2.24597166,23.3706665 4.2929077,23.5891113 C9.42590334,24.1369629 14.5742798,24.1369629 19.7072754,23.5891113 C21.7542114,23.3706665 23.3706665,21.7540283 23.5891113,19.7072754 C23.6068725,19.5413818 23.6239013,19.3754883 23.640564,19.2095948 L0.359619141,19.2095948 Z" id="Path" fill="url(#linearGradient-3)"></path>
                <path d="M23.5891113,19.7070923 C23.8157959,17.5830689 23.9483643,15.4564819 23.9875488,13.3293457 L17.5477295,6.88952634 C16.194397,5.46258544 14.2108154,4.56170653 12,4.56170653 C7.921875,4.56170653 4.61590575,7.62615966 4.61590575,11.406189 C4.61590575,13.2665405 5.41735837,14.9529419 6.71685792,16.1865234 C6.80236819,16.2767944 7.32604978,16.7990112 7.36724855,16.8402099 L7.39526367,19.1138306 C7.39782712,19.3218384 7.48168945,19.5206909 7.62872316,19.6677246 L11.9608154,23.9998169 C14.5442505,24.0012817 17.1276855,23.8643189 19.7070923,23.5891113 C21.7542114,23.3706665 23.3706665,21.7540283 23.5891113,19.7070923 L23.5891113,19.7070923 Z" id="Path" fill="url(#linearGradient-4)"></path>
                <path d="M12,4.56170653 C7.921875,4.56170653 4.61590575,7.62615966 4.61590575,11.406189 C4.61590575,13.5595093 5.6889038,15.4801026 7.3659668,16.7347412 L7.395813,19.1480713 C7.39727784,19.2784424 7.53826903,19.359375 7.65179442,19.2949219 L9.95782472,17.9853516 C10.6063843,18.15802 11.291565,18.2506714 12,18.2506714 C16.078125,18.2506714 19.3840943,15.1862182 19.3840943,11.406189 C19.3840943,7.62615966 16.078125,4.56170653 12,4.56170653 Z M12.560669,13.6122436 L10.9822998,11.9694214 C10.8898315,11.8731079 10.7444458,11.8502198 10.6268921,11.9135742 L7.85723878,13.4049682 C7.75177003,13.461731 7.64831541,13.3267823 7.73034666,13.239624 L11.0031738,9.77032472 C11.0971069,9.67089844 11.25531,9.67089844 11.34906,9.77050781 L12.9268799,11.4448242 C13.0195312,11.5433349 13.166748,11.5667724 13.2855835,11.5021362 L16.0072632,10.0202637 C16.1127319,9.96295167 16.2167358,10.0980835 16.1345215,10.1854248 L12.9050903,13.6105957 C12.8118896,13.7094727 12.6549682,13.7102051 12.560669,13.6122436 L12.560669,13.6122436 Z" id="Shape" fill="#FFFFFF"></path>
            </g>
        </g>
    </g>
</svg>