<?xml version="1.0" encoding="UTF-8"?>
<svg width="24px" height="24px" viewBox="0 0 24 24" version="1.1" xmlns="http://www.w3.org/2000/svg" xmlns:xlink="http://www.w3.org/1999/xlink">
    <!-- Generator: Sketch 55 (78076) - https://sketchapp.com -->
    <title>skype</title>
    <desc>Created with Sketch.</desc>
    <defs>
        <linearGradient x1="33.2019533%" y1="14.05981%" x2="58.4948073%" y2="68.1747744%" id="linearGradient-1">
            <stop stop-color="#00C3FF" offset="0%"></stop>
            <stop stop-color="#00B0ED" offset="100%"></stop>
        </linearGradient>
        <linearGradient x1="73.8335045%" y1="62.7852419%" x2="-89.8948936%" y2="-25.0447696%" id="linearGradient-2">
            <stop stop-color="#00B0ED" stop-opacity="0" offset="0%"></stop>
            <stop stop-color="#00A2CE" offset="100%"></stop>
        </linearGradient>
        <linearGradient x1="49.9996672%" y1="26.9860983%" x2="49.9996672%" y2="92.6337225%" id="linearGradient-3">
            <stop stop-color="#00B0ED" stop-opacity="0" offset="0%"></stop>
            <stop stop-color="#00A2CE" offset="100%"></stop>
        </linearGradient>
        <linearGradient x1="107.704866%" y1="107.70482%" x2="47.358761%" y2="47.3587394%" id="linearGradient-4">
            <stop stop-color="#00B0ED" stop-opacity="0" offset="0%"></stop>
            <stop stop-color="#00A2CE" offset="100%"></stop>
        </linearGradient>
    </defs>
    <g id="UI" stroke="none" stroke-width="1" fill="none" fill-rule="evenodd">
        <g id="Main-0.0" transform="translate(-834.000000, -3198.000000)" fill-rule="nonzero">
            <g id="skype" transform="translate(834.000000, 3198.000000)">
                <path d="M19.7072754,23.5891113 C14.5742798,24.1369629 9.4257202,24.1369629 4.29272461,23.5891113 C2.24597166,23.3706665 0.629333484,21.7540283 0.410888672,19.7070923 C-0.136962891,14.5740967 -0.136962891,9.4257202 0.410888672,4.29272461 C0.629333484,2.24597166 2.24597166,0.629333484 4.29272461,0.410888672 C9.4257202,-0.136962891 14.5740967,-0.136962891 19.7070923,0.410888672 C21.7540283,0.629333484 23.3706665,2.24597166 23.5891113,4.29272461 C24.1369629,9.4257202 24.1369629,14.5740967 23.5891113,19.7070923 C23.3706665,21.7540283 21.7542114,23.3706665 19.7072754,23.5891113 Z" id="Path" fill="url(#linearGradient-1)"></path>
                <path d="M22.2837525,5.16082762 C22.0900268,3.34460447 20.6555786,1.90997316 18.8391724,1.71606445 C14.2842407,1.23010256 9.71575927,1.23010256 5.16082763,1.71606445 C3.34460447,1.90997316 1.90997316,3.34460447 1.71606445,5.16082762 C1.23010256,9.71575927 1.23010256,14.2842407 1.71606445,18.8389893 C1.90997316,20.6553955 3.34460447,22.0900268 5.16082763,22.2837525 C9.71575927,22.7698974 14.2842407,22.7698974 18.8389893,22.2837525 C20.6553955,22.0900268 22.0900268,20.6553955 22.2837525,18.8389893 C22.7698974,14.2842407 22.7698974,9.71575927 22.2837525,5.16082762 L22.2837525,5.16082762 Z" id="Path" fill="url(#linearGradient-2)"></path>
                <path d="M0.359619141,19.2095948 C0.376098656,19.3754883 0.393127453,19.5413818 0.410888672,19.7072754 C0.629333484,21.7540283 2.24597166,23.3706665 4.2929077,23.5891113 C9.42590334,24.1369629 14.5742798,24.1369629 19.7072754,23.5891113 C21.7542114,23.3706665 23.3706665,21.7540283 23.5891113,19.7072754 C23.6068725,19.5413818 23.6239013,19.3754883 23.640564,19.2095948 L0.359619141,19.2095948 Z" id="Path" fill="url(#linearGradient-3)"></path>
                <path d="M16.9641724,7.27441406 C15.7157593,5.96337891 13.9533691,5.14617919 12,5.14617919 C11.6856079,5.14617919 11.3763427,5.16778566 11.0731201,5.20880128 C10.4190674,4.79901122 9.645813,4.56170653 8.81707762,4.56170653 C6.46691897,4.56170653 4.56170653,6.46691897 4.56170653,8.81707762 C4.56170653,9.645813 4.79901122,10.4190674 5.20880128,11.0731201 C5.16778566,11.3763427 5.14617919,11.6856079 5.14617919,12 C5.14617919,13.9533691 5.96337891,15.7157593 7.27441406,16.9641724 L14.2741699,23.9639282 C16.0861816,23.9069824 17.897644,23.7822876 19.7072754,23.5891113 C21.7542114,23.3706665 23.3706665,21.7540283 23.5891113,19.7070923 C23.7822876,17.897644 23.9069824,16.0861816 23.9639282,14.2741699 L16.9641724,7.27441406 Z" id="Path" fill="url(#linearGradient-4)"></path>
                <path d="M18.7911987,12.9268799 C18.8322143,12.6236573 18.8538208,12.3143921 18.8538208,12 C18.8538208,8.21466066 15.7853393,5.14617919 12,5.14617919 C11.6856079,5.14617919 11.3763427,5.16778566 11.0733032,5.20880128 C10.4192505,4.79882812 9.645813,4.56170653 8.81707762,4.56170653 C6.46691897,4.56170653 4.56170653,6.46673583 4.56170653,8.81707762 C4.56170653,9.645813 4.79901122,10.4190674 5.20880128,11.0731201 C5.16778566,11.3763428 5.14617919,11.6856079 5.14617919,12 C5.14617919,15.7853393 8.21484375,18.8538208 12.0001831,18.8538208 C12.3145752,18.8538208 12.6238403,18.8322143 12.9268799,18.7911987 C13.5809326,19.2011719 14.3543701,19.4382935 15.1831055,19.4382935 C17.5332642,19.4382935 19.4382935,17.5332642 19.4382935,15.1829224 C19.4382935,14.354187 19.2011719,13.5809326 18.7911987,12.9268799 L18.7911987,12.9268799 Z M15.1170044,15.2854614 C14.6033935,15.8979492 13.9121704,16.1813965 13.1574097,16.3379517 C12.7196045,16.428772 12.2731934,16.4796753 11.8258667,16.453125 C10.9627075,16.4020386 10.1171265,16.2800903 9.39404297,15.7412109 C8.88262941,15.3601685 8.51623537,14.8776855 8.34576417,14.2576904 C8.182251,13.6635132 8.50469972,13.201355 9.00750731,13.1195068 C9.3151245,13.069519 9.64654542,13.1863403 9.84338381,13.453125 C9.98913572,13.6506958 10.0737305,13.8777466 10.1773682,14.0949097 C10.506958,14.7854004 11.0614013,15.0948487 11.8115845,15.1089478 C12.3105469,15.1182862 12.791748,15.0710449 13.2262573,14.7980347 C13.7210083,14.4871216 13.8997192,14.0405273 13.7334595,13.5490723 C13.6404419,13.274231 13.4346314,13.111084 13.192749,12.9858398 C12.6974487,12.7293091 12.1486816,12.6498413 11.6149292,12.5203857 C10.8522949,12.3356323 10.0925903,12.1538086 9.41656495,11.7180176 C8.31628416,11.0088501 8.21209716,9.48651122 8.97784425,8.60449219 C9.4453125,8.06616211 10.0570679,7.81201172 10.7255859,7.66333008 C11.137207,7.57177734 11.5568848,7.52508544 11.9273071,7.54412841 C12.6643066,7.53332522 13.329895,7.62854006 13.9482422,7.93176272 C14.5627441,8.2329712 15.0576782,8.65374755 15.2515869,9.34973147 C15.4412842,10.0308838 14.8787842,10.6358643 14.1990967,10.4697876 C13.9832153,10.4168701 13.8418579,10.2573853 13.7177124,10.0805054 C13.5714112,9.87158203 13.4628296,9.63977053 13.307373,9.43560792 C13.0358276,9.07800291 12.6870117,8.87475586 12.236206,8.85626222 C11.7573853,8.83648683 11.277832,8.80554197 10.8312378,9.04357912 C10.6572876,9.13623047 10.5043945,9.25158694 10.3934326,9.41033934 C10.1513672,9.7565918 10.2566528,10.173706 10.6413574,10.4342651 C11.034668,10.7006836 11.4900513,10.7940674 11.9406738,10.9013672 C12.7412109,11.09198 13.5529175,11.248169 14.3040161,11.6017456 C14.9730835,11.916687 15.4868775,12.3762817 15.6381225,13.1403809 C15.795044,13.9337768 15.6454468,14.6553955 15.1170044,15.2854614 L15.1170044,15.2854614 Z" id="Shape" fill="#FFFFFF"></path>
            </g>
        </g>
    </g>
</svg>