<?xml version="1.0" encoding="UTF-8"?>
<svg width="24px" height="24px" viewBox="0 0 24 24" version="1.1" xmlns="http://www.w3.org/2000/svg" xmlns:xlink="http://www.w3.org/1999/xlink">
    <!-- Generator: Sketch 55 (78076) - https://sketchapp.com -->
    <title>twitter</title>
    <desc>Created with Sketch.</desc>
    <defs>
        <linearGradient x1="33.2019533%" y1="14.05981%" x2="58.4948073%" y2="68.1747744%" id="linearGradient-1">
            <stop stop-color="#00C3FF" offset="0%"></stop>
            <stop stop-color="#00B0ED" offset="100%"></stop>
        </linearGradient>
        <linearGradient x1="73.8335045%" y1="62.7852419%" x2="-89.8948936%" y2="-25.0447696%" id="linearGradient-2">
            <stop stop-color="#00B0ED" stop-opacity="0" offset="0%"></stop>
            <stop stop-color="#00A2CE" offset="100%"></stop>
        </linearGradient>
        <linearGradient x1="49.9996672%" y1="26.9860983%" x2="49.9996672%" y2="92.6337225%" id="linearGradient-3">
            <stop stop-color="#00B0ED" stop-opacity="0" offset="0%"></stop>
            <stop stop-color="#00A2CE" offset="100%"></stop>
        </linearGradient>
        <linearGradient x1="94.5561774%" y1="86.4621691%" x2="34.2372875%" y2="30.4154833%" id="linearGradient-4">
            <stop stop-color="#00B0ED" stop-opacity="0" offset="0%"></stop>
            <stop stop-color="#00A2CE" offset="100%"></stop>
        </linearGradient>
    </defs>
    <g id="UI" stroke="none" stroke-width="1" fill="none" fill-rule="evenodd">
        <g id="Main-0.0" transform="translate(-738.000000, -3230.000000)" fill-rule="nonzero">
            <g id="twitter" transform="translate(738.000000, 3230.000000)">
                <path d="M19.7072754,23.5891113 C14.5742798,24.1369629 9.4257202,24.1369629 4.29272461,23.5891113 C2.24597166,23.3706665 0.629333484,21.7540283 0.410888672,19.7070923 C-0.136962891,14.5740967 -0.136962891,9.4257202 0.410888672,4.29272461 C0.629333484,2.24597166 2.24597166,0.629333484 4.29272461,0.410888672 C9.4257202,-0.136962891 14.5740967,-0.136962891 19.7070923,0.410888672 C21.7540283,0.629333484 23.3706665,2.24597166 23.5891113,4.29272461 C24.1369629,9.4257202 24.1369629,14.5740967 23.5891113,19.7070923 C23.3706665,21.7540283 21.7542114,23.3706665 19.7072754,23.5891113 Z" id="Path" fill="url(#linearGradient-1)"></path>
                <path d="M22.2837525,5.16082762 C22.0900268,3.34460447 20.6555786,1.90997316 18.8391724,1.71606445 C14.2842407,1.23010256 9.71575927,1.23010256 5.16082763,1.71606445 C3.34460447,1.90997316 1.90997316,3.34460447 1.71606445,5.16082762 C1.23010256,9.71575927 1.23010256,14.2842407 1.71606445,18.8389893 C1.90997316,20.6553955 3.34460447,22.0900268 5.16082763,22.2837525 C9.71575927,22.7698974 14.2842407,22.7698974 18.8389893,22.2837525 C20.6553955,22.0900268 22.0900268,20.6553955 22.2837525,18.8389893 C22.7698974,14.2842407 22.7698974,9.71575927 22.2837525,5.16082762 L22.2837525,5.16082762 Z" id="Path" fill="url(#linearGradient-2)"></path>
                <path d="M0.359619141,19.2095948 C0.376098656,19.3754883 0.393127453,19.5413818 0.410888672,19.7072754 C0.629333484,21.7540283 2.24597166,23.3706665 4.2929077,23.5891113 C9.42590334,24.1369629 14.5742798,24.1369629 19.7072754,23.5891113 C21.7542114,23.3706665 23.3706665,21.7540283 23.5891113,19.7072754 C23.6068725,19.5413818 23.6239013,19.3754883 23.640564,19.2095948 L0.359619141,19.2095948 Z" id="Path" fill="url(#linearGradient-3)"></path>
                <path d="M23.994873,11.1566162 L19.0131225,6.17504883 C18.454834,6.49420167 17.9628296,6.67126463 17.5922241,6.76940916 C17.3838501,6.82525636 17.2137451,6.85565184 17.0914307,6.87231445 C16.5296631,6.29644777 15.7452393,5.93884275 14.8769531,5.93884275 C13.1685791,5.93884275 11.7833862,7.32385256 11.7833862,9.03259275 C11.7833862,9.09429933 11.7850342,9.15527344 11.7890625,9.21606445 C11.7973022,9.36419677 11.8161621,9.50976562 11.8452759,9.65130614 C11.1320801,9.64068605 8.81396484,9.45025636 6.60314944,7.55511473 C6.6029663,7.55511473 6.6029663,7.55493164 6.6029663,7.55493164 L6.6027832,7.55493164 L5.56018069,6.51214598 C5.56018069,6.51214598 4.33703616,8.64697266 6.13531495,10.2669068 C6.21423338,10.3549805 6.30102539,10.4419556 6.39605714,10.5274658 C6.40356445,10.5358887 6.411438,10.5441284 6.41894531,10.5525513 C6.18292238,10.5366211 5.47302244,10.4659424 5.06213381,10.1757202 C5.06213381,10.1757202 4.97955323,11.4805298 6.06665039,12.4411011 L6.94445803,13.326416 C6.677124,13.3485718 6.3814087,13.3432617 6.17578125,13.2531738 C6.17578125,13.2531738 6.35778806,14.026062 7.0612793,14.6445923 L8.29101563,15.8807373 C7.5532837,16.3104858 6.26184084,16.8482666 4.56188963,16.7109375 L12.0217896,24 C14.5848999,23.9992676 17.1480103,23.8623047 19.7072754,23.5891113 C21.7542114,23.3706665 23.3708496,21.7540283 23.5892944,19.7072754 C23.8930664,16.8599854 24.0280151,14.0079346 23.994873,11.1566162 L23.994873,11.1566162 Z" id="Path" fill="url(#linearGradient-4)"></path>
                <path d="M19.4382935,7.37658694 C18.9072876,7.65435792 18.1074829,7.78271484 17.8423462,7.81970213 C17.8401489,7.80688477 17.8379517,7.79461669 17.8357544,7.78234866 C18.7371826,7.22479247 19.0131225,6.17504883 19.0131225,6.17504883 C18.454834,6.49420167 17.9628296,6.67126463 17.5922241,6.76940916 C17.3838501,6.82525636 17.2137451,6.85546875 17.0914307,6.87231445 C16.5296631,6.29626463 15.7452393,5.93884275 14.8769531,5.93884275 C13.1685791,5.93884275 11.7833862,7.32366942 11.7833862,9.03259275 C11.7833862,9.09411619 11.7850342,9.15527344 11.7890625,9.21588136 C11.7973022,9.36401367 11.8161621,9.50958253 11.8452759,9.65112305 C11.0183716,9.63885497 8.03356931,9.38525391 5.56018069,6.51214598 C5.56018069,6.51214598 4.18286133,8.91522216 6.49841306,10.5567627 C6.49841306,10.5567627 5.56018069,10.5274658 5.06213381,10.1757202 C5.06213381,10.1757202 4.91564944,12.491272 7.58258058,13.2236939 C7.58258058,13.2236939 6.64489744,13.458435 6.17559816,13.2531738 C6.17559816,13.2531738 6.64471434,15.2460938 8.98937991,15.3929443 C8.98937991,15.3929443 7.30773928,16.9324951 4.56170653,16.7109375 C5.91229247,17.5660401 7.51354978,18.0609741 9.23034666,18.0609741 C14.0575561,18.0609741 17.9708862,14.1478271 17.9708862,9.32061769 C17.9708862,9.260376 17.9703369,9.20013427 17.9690552,9.13989258 C17.9703369,9.104187 17.9708862,9.06866456 17.9708862,9.03259275 C17.9708862,9.00750731 17.9703369,8.98242187 17.9699707,8.95733644 C18.8624268,8.36260987 19.4382935,7.37658694 19.4382935,7.37658694 L19.4382935,7.37658694 Z" id="Path" fill="#FFFFFF"></path>
            </g>
        </g>
    </g>
</svg>