<?xml version="1.0" encoding="UTF-8"?>
<svg width="24px" height="24px" viewBox="0 0 24 24" version="1.1" xmlns="http://www.w3.org/2000/svg" xmlns:xlink="http://www.w3.org/1999/xlink">
    <!-- Generator: Sketch 55 (78076) - https://sketchapp.com -->
    <title>youtube</title>
    <desc>Created with Sketch.</desc>
    <defs>
        <linearGradient x1="22.7485175%" y1="-2.50096186%" x2="94.8037641%" y2="136.315686%" id="linearGradient-1">
            <stop stop-color="#FFFCF8" offset="0%"></stop>
            <stop stop-color="#FAF8F6" offset="18.75%"></stop>
            <stop stop-color="#ECEEF2" offset="40.41%"></stop>
            <stop stop-color="#D5DCEA" offset="63.53%"></stop>
            <stop stop-color="#B5C4DF" offset="87.5%"></stop>
            <stop stop-color="#A1B5D8" offset="100%"></stop>
        </linearGradient>
        <linearGradient x1="36.8759009%" y1="42.6177546%" x2="-154.039644%" y2="-64.7722395%" id="linearGradient-2">
            <stop stop-color="#A1B5D8" stop-opacity="0" offset="0%"></stop>
            <stop stop-color="#90A2BD" stop-opacity="0.309804" offset="30.94%"></stop>
            <stop stop-color="#7C8B9C" stop-opacity="0.756863" offset="75.54%"></stop>
            <stop stop-color="#748290" offset="100%"></stop>
        </linearGradient>
        <linearGradient x1="49.9996672%" y1="41.2557065%" x2="49.9996672%" y2="119.349096%" id="linearGradient-3">
            <stop stop-color="#A1B5D8" stop-opacity="0" offset="0%"></stop>
            <stop stop-color="#90A2BD" stop-opacity="0.309804" offset="30.94%"></stop>
            <stop stop-color="#7C8B9C" stop-opacity="0.756863" offset="75.54%"></stop>
            <stop stop-color="#748290" offset="100%"></stop>
        </linearGradient>
        <linearGradient x1="78.529843%" y1="69.6847536%" x2="-6.8215864%" y2="-5.39968129%" id="linearGradient-4">
            <stop stop-color="#A1B5D8" stop-opacity="0" offset="0%"></stop>
            <stop stop-color="#90A2BD" stop-opacity="0.309804" offset="30.94%"></stop>
            <stop stop-color="#7C8B9C" stop-opacity="0.756863" offset="75.54%"></stop>
            <stop stop-color="#748290" offset="100%"></stop>
        </linearGradient>
        <linearGradient x1="43.8987244%" y1="37.7215842%" x2="58.7142975%" y2="67.6813242%" id="linearGradient-5">
            <stop stop-color="#E52D27" offset="0%"></stop>
            <stop stop-color="#B31217" offset="100%"></stop>
        </linearGradient>
    </defs>
    <g id="UI" stroke="none" stroke-width="1" fill="none" fill-rule="evenodd">
        <g id="Main-0.0" transform="translate(-770.000000, -3198.000000)" fill-rule="nonzero">
            <g id="youtube" transform="translate(770.000000, 3198.000000)">
                <path d="M19.7072754,23.5891113 C14.5742798,24.1369629 9.4257202,24.1369629 4.29272461,23.5891113 C2.24597166,23.3706665 0.629333484,21.7540283 0.410888672,19.7070923 C-0.136962891,14.5740967 -0.136962891,9.4257202 0.410888672,4.29272461 C0.629333484,2.24597166 2.24597166,0.629333484 4.29272461,0.410888672 C9.4257202,-0.136962891 14.5740967,-0.136962891 19.7070923,0.410888672 C21.7540283,0.629333484 23.3706665,2.24597166 23.5891113,4.29272461 C24.1369629,9.4257202 24.1369629,14.5740967 23.5891113,19.7070923 C23.3706665,21.7540283 21.7542114,23.3706665 19.7072754,23.5891113 Z" id="Path" fill="url(#linearGradient-1)"></path>
                <path d="M22.2837525,5.16082762 C22.0900268,3.34460447 20.6555786,1.90997316 18.8391724,1.71606445 C14.2842407,1.23010256 9.71575927,1.23010256 5.16082763,1.71606445 C3.34460447,1.90997316 1.90997316,3.34460447 1.71606445,5.16082762 C1.23010256,9.71575927 1.23010256,14.2842407 1.71606445,18.8389893 C1.90997316,20.6553955 3.34460447,22.0900268 5.16082763,22.2837525 C9.71575927,22.7698974 14.2842407,22.7698974 18.8389893,22.2837525 C20.6553955,22.0900268 22.0900268,20.6553955 22.2837525,18.8389893 C22.7698974,14.2842407 22.7698974,9.71575927 22.2837525,5.16082762 L22.2837525,5.16082762 Z" id="Path" fill="url(#linearGradient-2)"></path>
                <path d="M0.359619141,19.2095948 C0.376098656,19.3754883 0.393127453,19.5413818 0.410888672,19.7072754 C0.629333484,21.7540283 2.24597166,23.3706665 4.2929077,23.5891113 C9.42590334,24.1369629 14.5742798,24.1369629 19.7072754,23.5891113 C21.7542114,23.3706665 23.3706665,21.7540283 23.5891113,19.7072754 C23.6068725,19.5413818 23.6239013,19.3754883 23.640564,19.2095948 L0.359619141,19.2095948 Z" id="Path" fill="url(#linearGradient-3)"></path>
                <path d="M19.7072754,23.5891113 C21.7542114,23.3706665 23.3706665,21.7540283 23.5891113,19.7070923 C23.8287964,17.4625854 23.963562,15.2151489 23.9935913,12.9671631 L18.7802124,7.7539673 C18.5125122,7.42218019 18.2704468,7.39141847 17.7687378,7.29345703 C17.3622436,7.21398928 16.9464112,7.15979006 16.5327759,7.14349364 C15.2102051,7.09130859 13.8867188,7.041687 12.5632324,7.02905273 C10.6199341,7.01055909 8.67626953,7.01696775 6.74066161,7.24182131 C5.90606691,7.33868409 5.02386473,7.99328616 4.92919922,8.88555909 C4.88067628,9.34405519 4.79644777,9.79998778 4.77026367,10.2595825 C4.6744995,11.9333496 4.65454102,13.6062012 4.88854978,15.2733765 C4.96691897,15.8316651 5.05316161,16.0870972 5.42944336,16.3983765 L13.0237427,23.9926758 C15.2526855,23.9609985 17.4814453,23.8265991 19.7072754,23.5891113 L19.7072754,23.5891113 Z" id="Path" fill="url(#linearGradient-4)"></path>
                <path d="M12.4112549,17.1657715 C10.473999,17.100769 8.97454833,17.0637818 7.47692869,16.9923706 C7.01989744,16.9703979 6.5494995,16.9083252 6.11663817,16.7677002 C5.31994631,16.5091553 4.86547852,15.9265137 4.7473755,15.085144 C4.51336669,13.4179688 4.53332522,11.7451172 4.62908934,10.0713501 C4.65545653,9.61175536 4.73968505,9.15582277 4.78820803,8.69732667 C4.88250731,7.80505369 5.76489258,7.15026853 6.59948728,7.05358884 C8.53527834,6.82873538 10.4787598,6.82232667 12.4222412,6.84082031 C13.7457276,6.85345458 15.0690308,6.90307617 16.3916016,6.95526122 C16.8052368,6.97155759 17.2210693,7.02593995 17.6275635,7.10522461 C18.5233154,7.28009034 19.0415039,7.84039308 19.1993408,8.74035647 C19.4128418,9.95800781 19.468689,11.1873779 19.4238281,12.4172974 C19.3899536,13.3482056 19.2940064,14.2776489 19.1975098,15.204895 C19.0909424,16.2282715 18.204895,16.8343506 17.4069214,16.8869018 C15.5983887,17.0061035 13.7878418,17.0906982 12.4112549,17.1657715 L12.4112549,17.1657715 Z" id="Path" fill="url(#linearGradient-5)"></path>
                <path d="M10.5844116,14.2640991 C11.835022,13.4963379 13.0550537,12.7468872 14.3117065,11.9752807 C13.0576172,11.2045898 11.8377685,10.454956 10.5844116,9.68481445 L10.5844116,14.2640991 Z" id="Path" fill="#FFFFFF"></path>
            </g>
        </g>
    </g>
</svg>